<?xml version="1.0" encoding="UTF-8"?>
<svg width="795px" height="911px" viewBox="0 0 795 911" version="1.1" xmlns="http://www.w3.org/2000/svg" xmlns:xlink="http://www.w3.org/1999/xlink">
    <!-- Generator: Sketch 3.7.1 (28215) - http://www.bohemiancoding.com/sketch -->
    <title>Untitled</title>
    <desc>Created with Sketch.</desc>
    <defs></defs>
    <g id="Page-1" stroke="none" stroke-width="1" fill="none" fill-rule="evenodd">
        <g id="UI中国">
            <polygon id="Shape" fill="#F5F5F5" points="772.202585 239.368893 772.202585 672.005776 397.493584 888.340202 22.816553 672.005776 22.816553 239.368893 397.493584 23.034467"></polygon>
            <path d="M397.493584,910.718523 C393.565317,910.71835 389.706303,909.684134 386.304424,907.719828 L11.627392,691.385402 C4.70318505,687.386948 0.437952239,679.998345 0.438232,672.002579 L0.438232,239.368893 C0.437775471,231.373915 4.70320867,223.986185 11.627392,219.989267 L386.304424,3.654841 C393.22777,-0.344640392 401.759399,-0.344640392 408.682745,3.654841 L783.391745,219.989267 C790.315929,223.986185 794.581362,231.373915 794.580906,239.368893 L794.580906,672.005776 C794.581186,680.001543 790.315952,687.390145 783.391745,691.388599 L408.682745,907.723025 C405.280034,909.684955 401.421383,910.717971 397.493584,910.718523 L397.493584,910.718523 Z M45.194874,659.087091 L397.493584,862.499635 L749.824264,659.087091 L749.824264,252.287578 L397.493584,48.875034 L45.194874,252.287578 L45.194874,659.087091 L45.194874,659.087091 Z" id="Shape" fill="#EFEFEF"></path>
            <path d="M290.780962,678.943055 C242.437395,678.943055 196.990222,660.116493 162.808935,625.935207 C128.608467,591.737936 109.772314,546.277975 109.772314,497.934407 L109.772314,276.644782 C109.772314,264.285577 119.79143,254.266461 132.150635,254.266461 C144.50984,254.266461 154.528956,264.285577 154.528956,276.644782 L154.528956,497.934407 C154.528956,534.324754 168.710418,568.541207 194.458275,594.289064 C220.183753,620.020936 254.393812,634.186413 290.780962,634.186413 C365.908183,634.186413 427.032968,573.064825 427.032968,497.934407 L427.032968,276.644782 C427.032968,264.285577 437.052084,254.266461 449.411289,254.266461 C461.770494,254.266461 471.78961,264.285577 471.78961,276.644782 L471.78961,497.934407 C471.78961,597.741719 390.588274,678.943055 290.780962,678.943055 L290.780962,678.943055 Z M589.307764,678.943055 C576.948559,678.943055 566.929443,668.923939 566.929443,656.564734 L566.929443,276.644782 C566.929443,268.649778 571.194726,261.262089 578.118603,257.264586 C585.04248,253.267084 593.573048,253.267084 600.496925,257.264586 C607.420802,261.262089 611.686085,268.649778 611.686085,276.644782 L611.686085,656.564734 C611.686085,668.923939 601.666969,678.943055 589.307764,678.943055 L589.307764,678.943055 Z" id="Shape" fill="#EFEFEF"></path>
            <path d="M290.780962,600.203334 C259.962817,600.203334 231.018057,588.208554 209.279117,566.431251 C187.527389,544.721083 175.532609,515.763535 175.532609,484.926209 L175.532609,278.658831 C175.532609,266.299626 185.551725,256.28051 197.91093,256.28051 C210.270135,256.28051 220.289251,266.299626 220.289251,278.658831 L220.289251,484.926209 C220.289251,503.794331 227.616553,521.498779 240.92526,534.785108 C254.237164,548.122587 271.932022,555.449889 290.780962,555.449889 C329.652106,555.449889 361.272673,523.813337 361.272673,484.926209 L361.272673,278.658831 C361.272673,266.299626 371.291789,256.28051 383.650994,256.28051 C396.010199,256.28051 406.029315,266.299626 406.029315,278.658831 L406.029315,484.926209 C406.029315,548.490231 354.329,600.203334 290.780962,600.203334 L290.780962,600.203334 Z M659.63963,678.943055 C647.280425,678.943055 637.261309,668.923939 637.261309,656.564734 L637.261309,276.644782 C637.261309,264.285577 647.280425,254.266461 659.63963,254.266461 C671.998835,254.266461 682.017951,264.285577 682.017951,276.644782 L682.017951,656.564734 C682.017951,668.923939 671.998835,678.943055 659.63963,678.943055 L659.63963,678.943055 Z" id="Shape" fill="#EFEFEF"></path>
        </g>
    </g>
</svg>